<?xml version="1.0" encoding="utf-8"?>
<!-- Generator: Adobe Illustrator 23.0.3, SVG Export Plug-In . SVG Version: 6.00 Build 0)  -->
<svg version="1.1" id="Capa_1" xmlns="http://www.w3.org/2000/svg" xmlns:xlink="http://www.w3.org/1999/xlink" x="0px" y="0px"
	 viewBox="0 0 52 52" style="enable-background:new 0 0 52 52;" xml:space="preserve">
<style type="text/css">
	.st0{fill:#999999;stroke:#999999;stroke-width:3;stroke-miterlimit:10;}
</style>
<g>
	<path class="st0" d="M26.3,1.9C12.9,1.9,1.9,12.9,1.9,26.3s10.9,24.3,24.3,24.3s24.3-10.9,24.3-24.3S39.7,1.9,26.3,1.9z M26.3,48.7
		c-12.4,0-22.5-10.1-22.5-22.5S13.9,3.8,26.3,3.8s22.5,10.1,22.5,22.5S38.7,48.7,26.3,48.7z"/>
	<path class="st0" d="M38.5,25H27V14c0-0.6-0.4-1-1-1s-1,0.4-1,1v11H13.5c-0.6,0-1,0.4-1,1s0.4,1,1,1H25v12c0,0.6,0.4,1,1,1
		s1-0.4,1-1V27h11.5c0.6,0,1-0.4,1-1S39.1,25,38.5,25z"/>
</g>
</svg>
